# Blender 4.1.1
# www.blender.org
mtllib table 2.mtl
o Table
v -2.656667 2.838979 1.798497
v -2.656667 3.005256 1.798497
v -2.656667 2.838979 -1.201503
v -2.656667 3.005256 -1.201503
v 2.834354 2.838979 1.798497
v 2.834354 3.005256 1.798497
v 2.834354 2.838979 -1.201503
v 2.834354 3.005256 -1.201503
v -2.382116 2.838979 -1.201503
v -2.382116 3.005256 -1.201503
v -2.382116 2.838979 1.798497
v -2.382116 3.005256 1.798497
v 2.573530 3.005256 -1.201503
v 2.573530 2.838979 1.798497
v 2.573530 2.838979 -1.201503
v 2.573530 3.005256 1.798497
v -2.656667 2.838979 1.498497
v -2.656667 3.005256 1.498497
v 2.834354 2.838979 1.498497
v 2.834354 3.005256 1.498497
v -2.382116 2.838979 1.498497
v 2.573530 2.838979 1.498497
v -2.656667 3.005256 -0.931503
v 2.834354 2.838979 -0.931503
v -2.656667 2.838979 -0.931503
v 2.834354 3.005256 -0.931503
v -2.382116 2.838979 -0.931503
v 2.573530 2.838979 -0.931503
v -2.656667 0.003019 1.498497
v -2.656667 0.003019 1.798497
v -2.382116 0.003019 -1.201503
v -2.656667 0.003019 -1.201503
v 2.834354 0.003019 -0.931503
v 2.834354 0.003019 -1.201503
v 2.573530 0.003019 1.798497
v 2.834354 0.003019 1.798497
v -2.382116 0.003019 1.798497
v -2.382116 0.003019 1.498497
v 2.573530 0.003019 -1.201503
v 2.573530 0.003019 1.498497
v 2.834354 0.003019 1.498497
v -2.656667 0.003019 -0.931503
v -2.382116 0.003019 -0.931503
v 2.573530 0.003019 -0.931503
vn -0.0000 -0.0000 -1.0000
vn 1.0000 -0.0000 -0.0000
vn -0.0000 -0.0000 1.0000
vn -1.0000 -0.0000 -0.0000
vn -0.0000 -1.0000 -0.0000
vn -0.0000 1.0000 -0.0000
vt 0.375000 0.488125
vt 0.375000 0.500000
vt 0.375000 0.522500
vt 0.625000 0.725000
vt 0.625000 0.750000
vt 0.375000 0.750000
vt 0.375000 0.725000
vt 0.625000 0.500000
vt 0.625000 0.522500
vt 0.625000 0.987500
vt 0.625000 1.000000
vt 0.375000 1.000000
vt 0.375000 0.987500
vt 0.375000 0.761875
vt 0.625000 0.761875
vt 0.625000 0.488125
vt 0.375000 0.262500
vt 0.375000 0.250000
vt 0.625000 0.250000
vt 0.625000 0.262500
vt 0.363125 0.522500
vt 0.363125 0.500000
vt 0.625000 0.227500
vt 0.375000 0.227500
vt 0.375000 0.025000
vt 0.375000 0.000000
vt 0.625000 0.000000
vt 0.625000 0.025000
vt 0.363125 0.725000
vt 0.363125 0.750000
vt 0.125000 0.725000
vt 0.137500 0.725000
vt 0.137500 0.750000
vt 0.125000 0.750000
vt 0.125000 0.500000
vt 0.137500 0.500000
vt 0.137500 0.522500
vt 0.125000 0.522500
vt 0.875000 0.725000
vt 0.875000 0.750000
vt 0.862500 0.750000
vt 0.636875 0.750000
vt 0.636875 0.500000
vt 0.862500 0.500000
vt 0.875000 0.500000
vt 0.875000 0.522500
s 0
usemtl Metal
f 15/1/1 7/2/1 34/2/1 39/1/1
f 7/2/2 24/3/2 33/3/2 34/2/2
f 11/13/3 1/12/3 30/12/3 37/13/3
f 28/21/4 15/22/4 39/22/4 44/21/4
f 40/29/5 41/7/5 36/6/5 35/30/5
f 29/31/5 38/32/5 37/33/5 30/34/5
f 39/22/5 34/2/5 33/3/5 44/21/5
f 32/35/5 31/36/5 43/37/5 42/38/5
f 1/26/4 17/25/4 29/25/4 30/26/4
f 19/7/2 5/6/2 36/6/2 41/7/2
f 17/31/1 21/32/1 38/32/1 29/31/1
f 24/3/3 28/21/3 44/21/3 33/3/3
f 25/24/4 3/18/4 32/18/4 42/24/4
f 21/32/2 11/33/2 37/33/2 38/32/2
f 5/6/3 14/14/3 35/14/3 36/6/3
f 14/30/4 22/29/4 40/29/4 35/30/4
f 3/18/1 9/17/1 31/17/1 32/18/1
f 22/29/1 19/7/1 41/7/1 40/29/1
f 27/37/3 25/38/3 42/38/3 43/37/3
f 9/36/2 27/37/2 43/37/2 31/36/2
usemtl wood
f 20/4/2 6/5/2 5/6/2 19/7/2 24/3/2 7/2/2 8/8/2 26/9/2
f 12/10/3 2/11/3 1/12/3 11/13/3 14/14/3 5/6/3 6/5/3 16/15/3
f 13/16/1 8/8/1 7/2/1 15/1/1 9/17/1 3/18/1 4/19/1 10/20/1
f 23/23/4 4/19/4 3/18/4 25/24/4 17/25/4 1/26/4 2/27/4 18/28/4
f 18/39/6 2/40/6 12/41/6 16/42/6 6/5/6 20/4/6 26/9/6 8/8/6 13/43/6 10/44/6 4/45/6 23/46/6
f 22/29/5 14/30/5 11/33/5 21/32/5 17/31/5 25/38/5 27/37/5 9/36/5 15/22/5 28/21/5 24/3/5 19/7/5
