# Blender 4.1.1
# www.blender.org
mtllib zombie 1.mtl
o Zombie_2
v -0.511587 0.004690 0.435414
v -0.511587 1.692952 0.435414
v -0.511587 0.004690 -0.326779
v -0.511587 1.692952 -0.326779
v 0.678433 0.004690 0.435414
v 0.678433 1.692952 0.435414
v 0.678433 0.004690 -0.326779
v 0.678433 1.692952 -0.326779
v -0.581870 1.698505 0.488351
v -0.581870 3.386767 0.488351
v -0.581870 1.698505 -0.374281
v -0.581870 3.386767 -0.374281
v 0.745116 1.698505 0.488351
v 0.745116 3.386767 0.488351
v 0.745116 1.698505 -0.374281
v 0.745116 3.386767 -0.374281
v -0.232780 3.389986 -0.104363
v -0.232780 3.525341 -0.104363
v -0.232780 3.389986 0.347732
v -0.232780 3.525341 0.347732
v 0.415680 3.389986 -0.104363
v 0.415680 3.525341 -0.104363
v 0.415680 3.389986 0.347732
v 0.415680 3.525341 0.347732
v -0.431562 3.524994 0.591695
v -0.431562 4.519158 0.591695
v -0.431562 3.524994 -0.346351
v -0.431562 4.519158 -0.346351
v 0.600101 3.524994 0.591695
v 0.600101 4.519158 0.591695
v 0.600101 3.524994 -0.346351
v 0.600101 4.519158 -0.346351
v -0.947366 2.962440 1.613496
v -0.947366 3.387955 1.613496
v -0.947366 2.962440 -0.244255
v -0.947366 3.387955 -0.244255
v -0.581401 2.962440 1.613496
v -0.581401 3.387955 1.613496
v -0.581401 2.962440 -0.244255
v -0.581401 3.387955 -0.244255
v 0.744885 2.961100 1.615593
v 0.744885 3.386615 1.615593
v 0.744885 2.961100 -0.242157
v 0.744885 3.386615 -0.242157
v 1.110850 2.961100 1.615593
v 1.110850 3.386615 1.615593
v 1.110850 2.961100 -0.242157
v 1.110850 3.386615 -0.242157
vn -1.0000 -0.0000 -0.0000
vn -0.0000 -0.0000 -1.0000
vn 1.0000 -0.0000 -0.0000
vn -0.0000 -0.0000 1.0000
vn -0.0000 -1.0000 -0.0000
vn -0.0000 1.0000 -0.0000
vt 0.102901 0.297695
vt 0.188106 0.297695
vt 0.188106 0.382900
vt 0.102901 0.382900
vt 0.188106 0.468105
vt 0.102901 0.468105
vt 0.188106 0.553309
vt 0.102901 0.553309
vt 0.188106 0.638514
vt 0.102901 0.638514
vt 0.017697 0.468105
vt 0.017697 0.553309
vt 0.273311 0.468105
vt 0.273311 0.553309
vt 0.511670 0.638830
vt 0.578989 0.638830
vt 0.578989 0.706149
vt 0.511670 0.706149
vt 0.578989 0.773468
vt 0.511670 0.773468
vt 0.578989 0.840786
vt 0.511670 0.840786
vt 0.578759 0.840558
vt 0.579217 0.907876
vt 0.511900 0.908333
vt 0.511442 0.841016
vt 0.444351 0.773468
vt 0.444351 0.840786
vt 0.646308 0.773468
vt 0.646308 0.840786
vt 0.358831 0.638830
vt 0.444036 0.638830
vt 0.444036 0.724034
vt 0.358831 0.724034
vt 0.444036 0.809239
vt 0.358831 0.809239
vt 0.444036 0.894444
vt 0.358831 0.894444
vt 0.444036 0.979648
vt 0.358831 0.979648
vt 0.273626 0.809239
vt 0.273626 0.894444
vt 0.529556 0.482950
vt 0.588075 0.482950
vt 0.588075 0.541469
vt 0.529556 0.541469
vt 0.676354 0.001439
vt 0.824745 0.002852
vt 0.824745 0.149482
vt 0.676354 0.149482
vt 0.824745 0.297873
vt 0.676354 0.297873
vt 0.824745 0.530057
vt 0.676354 0.517927
vt 0.978440 0.235524
vt 0.978440 0.989616
vt 0.023574 0.989616
vt 0.023574 0.235524
vt 0.527963 0.297873
vt 0.676354 0.321613
vt 0.527963 0.321613
vt 0.973136 0.297873
vt 0.974687 0.443246
vt 0.821645 0.447897
vt 0.358831 0.297695
vt 0.444036 0.297695
vt 0.444036 0.382900
vt 0.358831 0.382900
vt 0.444036 0.468105
vt 0.358831 0.468105
vt 0.444036 0.553309
vt 0.358831 0.553309
vt 0.444036 0.638514
vt 0.358831 0.638514
vt 0.273626 0.468105
vt 0.273626 0.553309
vt 0.529240 0.468105
vt 0.529240 0.553309
vt 0.102901 0.638830
vt 0.188106 0.638830
vt 0.188106 0.724034
vt 0.102901 0.724034
vt 0.188106 0.809239
vt 0.102901 0.809239
vt 0.188106 0.894444
vt 0.102901 0.894444
vt 0.188106 0.979648
vt 0.102901 0.979648
vt 0.017697 0.809239
vt 0.017697 0.894444
vt 0.273311 0.809239
vt 0.273311 0.894444
s 0
usemtl mat
f 1/1/1 2/2/1 4/3/1 3/4/1
f 3/4/2 4/3/2 8/5/2 7/6/2
f 7/6/3 8/5/3 6/7/3 5/8/3
f 5/8/4 6/7/4 2/9/4 1/10/4
f 3/11/5 7/6/5 5/8/5 1/12/5
f 8/5/6 4/13/6 2/14/6 6/7/6
f 9/15/1 10/16/1 12/17/1 11/18/1
f 11/18/2 12/17/2 16/19/2 15/20/2
f 15/20/3 16/19/3 14/21/3 13/22/3
f 13/23/4 14/24/4 10/25/4 9/26/4
f 11/27/5 15/20/5 13/22/5 9/28/5
f 16/19/6 12/29/6 10/30/6 14/21/6
f 17/31/3 18/32/3 20/33/3 19/34/3
f 19/34/2 20/33/2 24/35/2 23/36/2
f 23/36/1 24/35/1 22/37/1 21/38/1
f 21/38/4 22/37/4 18/39/4 17/40/4
f 19/41/6 23/36/6 21/38/6 17/42/6
f 24/43/5 20/44/5 18/45/5 22/46/5
f 25/47/1 26/48/1 28/49/1 27/50/1
f 27/50/2 28/49/2 32/51/2 31/52/2
f 31/52/3 32/51/3 30/53/3 29/54/3
f 27/59/5 31/52/5 29/60/5 25/61/5
f 32/51/6 28/62/6 26/63/6 30/64/6
f 33/65/1 34/66/1 36/67/1 35/68/1
f 35/68/2 36/67/2 40/69/2 39/70/2
f 39/70/3 40/69/3 38/71/3 37/72/3
f 37/72/4 38/71/4 34/73/4 33/74/4
f 35/75/5 39/70/5 37/72/5 33/76/5
f 40/69/6 36/77/6 34/78/6 38/71/6
f 41/79/1 42/80/1 44/81/1 43/82/1
f 43/82/2 44/81/2 48/83/2 47/84/2
f 47/84/3 48/83/3 46/85/3 45/86/3
f 45/86/4 46/85/4 42/87/4 41/88/4
f 43/89/5 47/84/5 45/86/5 41/90/5
f 48/83/6 44/91/6 42/92/6 46/85/6
usemtl face
f 29/55/4 30/56/4 26/57/4 25/58/4
